# Blender v2.93.1 OBJ File: 'untitled.blend'
# www.blender.org
mtllib prop1.mtl
o drone_costum_Cube
v 0.006371 -0.463198 0.010940
v 0.021832 -0.312352 -0.077020
v 0.083643 -0.312352 -0.039217
v 0.083643 -0.502800 -0.039217
v 0.021832 -0.502800 -0.077020
v 0.083643 -0.312352 -0.039217
v 0.099952 -0.312352 0.031379
v 0.099952 -0.502800 0.031379
v 0.083643 -0.502800 -0.039217
v -0.088027 -0.312352 0.002153
v -0.049277 -0.312352 -0.059885
v -0.049277 -0.502800 -0.059885
v -0.088027 -0.502800 0.002153
v -0.049277 -0.312352 -0.059885
v 0.021832 -0.312352 -0.077020
v 0.021832 -0.502800 -0.077020
v -0.049277 -0.502800 -0.059885
v 0.061202 -0.502800 0.093415
v 0.005963 -0.502800 0.016765
v -0.071719 -0.502800 0.072749
v -0.088027 -0.502800 0.002153
v -0.009906 -0.502800 0.110552
v -1.403562 -0.082949 -1.772536
v -1.403562 -0.050925 -1.772536
v -1.245592 -0.050925 -1.886382
v -1.245592 -0.082949 -1.886382
v 0.279149 -0.133857 0.079178
v -0.021245 -0.133857 0.295666
v -0.034349 -0.133857 0.148413
v 0.074784 -0.133857 0.112260
v 0.143601 -0.133857 0.020169
v 1.415488 -0.082949 1.806068
v 1.415488 -0.050925 1.806068
v 1.257517 -0.050925 1.919913
v 1.257517 -0.082949 1.919913
v 0.995503 -0.091292 1.136532
v 1.357860 -0.091292 1.639329
v 1.117570 -0.091292 1.812501
v 0.755214 -0.091292 1.309705
v 0.755214 -0.091292 1.309705
v 1.117570 -0.091292 1.812501
v 1.117570 -0.042581 1.812501
v 0.755214 -0.042581 1.309705
v 0.755214 -0.042581 1.309705
v 1.117570 -0.042581 1.812501
v 1.357860 -0.042581 1.639329
v 0.995504 -0.042581 1.136532
v 0.995504 -0.042581 1.136532
v 1.357860 -0.042581 1.639329
v 1.357860 -0.091292 1.639329
v 0.995503 -0.091292 1.136532
v -0.983054 -0.091292 -1.102273
v -1.345147 -0.091292 -1.604705
v -1.104857 -0.091292 -1.777877
v -0.742764 -0.091292 -1.275445
v -0.742764 -0.091292 -1.275445
v -1.104857 -0.091292 -1.777877
v -1.104857 -0.042581 -1.777877
v -0.742764 -0.042581 -1.275445
v -0.742764 -0.042581 -1.275445
v -1.104857 -0.042581 -1.777877
v -1.345147 -0.042581 -1.604705
v -0.983054 -0.042581 -1.102273
v -0.983054 -0.042581 -1.102273
v -1.345147 -0.042581 -1.604705
v -1.345147 -0.091292 -1.604705
v -0.983054 -0.091292 -1.102273
v -0.131676 -0.133857 0.013363
v -0.062858 -0.133857 -0.078729
v 0.033171 -0.133857 -0.262134
v 0.131792 -0.133857 -0.073918
v 0.046274 -0.133857 -0.114882
v -0.267222 -0.133857 -0.045646
v -0.062858 -0.133857 -0.078729
v -0.131676 -0.133857 0.013363
v -0.119867 -0.133857 0.107448
v -0.062858 -0.133857 -0.078729
v 0.046274 -0.133857 -0.114882
v -0.034349 -0.133857 0.148413
v -0.119867 -0.133857 0.107448
v -0.071719 -0.312352 0.072749
v -0.009906 -0.312352 0.110552
v -0.119867 -0.133857 0.107448
v -0.071719 -0.312352 0.072749
v -0.071719 -0.502800 0.072749
v -0.009906 -0.502800 0.110552
v -0.071719 -0.502800 0.072749
v 0.061202 -0.312352 0.093415
v 0.061202 -0.502800 0.093415
v 0.061202 -0.312352 0.093415
v -0.009906 -0.312352 0.110552
v -0.009906 -0.502800 0.110552
v 0.061202 -0.502800 0.093415
v 0.131792 -0.133857 -0.073918
v 0.143601 -0.133857 0.020169
v 0.046274 -0.133857 -0.114882
v 0.131792 -0.133857 -0.073918
v 0.074784 -0.133857 0.112260
v -0.034349 -0.133857 0.148413
v 0.074784 -0.133857 0.112260
v -0.258867 -0.042581 -0.097409
v -0.620960 -0.042581 -0.599841
v -0.620960 -0.091292 -0.599841
v -0.258867 -0.091292 -0.097409
v -0.018577 -0.042581 -0.270580
v -0.380670 -0.042581 -0.773013
v -0.620960 -0.042581 -0.599841
v -0.258867 -0.042581 -0.097409
v -0.018577 -0.091292 -0.270580
v -0.380670 -0.091292 -0.773013
v -0.380670 -0.042581 -0.773013
v -0.018577 -0.042581 -0.270580
v -0.258867 -0.091292 -0.097409
v -0.620960 -0.091292 -0.599841
v -0.380670 -0.091292 -0.773013
v -0.018577 -0.091292 -0.270580
v 0.270791 -0.042581 0.130939
v 0.633148 -0.042581 0.633735
v 0.633148 -0.091292 0.633735
v 0.270791 -0.091292 0.130939
v 0.030501 -0.042581 0.304111
v 0.392858 -0.042581 0.806908
v 0.633148 -0.042581 0.633735
v 0.270791 -0.042581 0.130939
v 0.030501 -0.091292 0.304111
v 0.392858 -0.091292 0.806908
v 0.392858 -0.042581 0.806908
v 0.030501 -0.042581 0.304111
v 0.270791 -0.091292 0.130939
v 0.633148 -0.091292 0.633735
v 0.392858 -0.091292 0.806908
v 0.030501 -0.091292 0.304111
v -1.403562 -0.050925 -1.772536
v -1.403562 -0.082949 -1.772536
v 0.033171 -0.133857 -0.262134
v 0.033171 -0.000016 -0.262134
v 0.279149 -0.000016 0.079178
v 0.279149 -0.133857 0.079178
v -0.021245 -0.133857 0.295666
v -0.021245 -0.000016 0.295666
v -0.267222 -0.000016 -0.045646
v -0.267222 -0.133857 -0.045646
v 0.279149 -0.000016 0.079178
v 0.033171 -0.000016 -0.262134
v -0.267222 -0.000016 -0.045646
v -0.021245 -0.000016 0.295666
v 0.033171 -0.000016 -0.262134
v -0.018577 -0.042581 -0.270580
v -0.258867 -0.042581 -0.097409
v -0.267222 -0.000016 -0.045646
v 0.033171 -0.133857 -0.262134
v -0.018577 -0.091292 -0.270580
v -0.018577 -0.042581 -0.270580
v 0.033171 -0.000016 -0.262134
v -0.267222 -0.133857 -0.045646
v -0.258867 -0.091292 -0.097409
v -0.018577 -0.091292 -0.270580
v 0.033171 -0.133857 -0.262134
v -0.021245 -0.000016 0.295666
v 0.030501 -0.042581 0.304111
v 0.270791 -0.042581 0.130939
v 0.279149 -0.000016 0.079178
v -0.021245 -0.133857 0.295666
v 0.030501 -0.091292 0.304111
v 0.030501 -0.042581 0.304111
v -0.021245 -0.000016 0.295666
v 0.279149 -0.133857 0.079178
v 0.270791 -0.091292 0.130939
v 0.030501 -0.091292 0.304111
v -0.021245 -0.133857 0.295666
v -1.245592 -0.050925 -1.886382
v -1.403562 -0.050925 -1.772536
v -1.245592 -0.082949 -1.886382
v -1.245592 -0.050925 -1.886382
v -1.403562 -0.082949 -1.772536
v -1.245592 -0.082949 -1.886382
v 1.415488 -0.050925 1.806068
v 1.415488 -0.082949 1.806068
v 1.257517 -0.050925 1.919913
v 1.415488 -0.050925 1.806068
v 1.257517 -0.082949 1.919913
v 1.257517 -0.050925 1.919913
v 1.415488 -0.082949 1.806068
v 1.257517 -0.082949 1.919913
vt 0.000000 0.000000
vt 0.000000 0.000000
vt 0.000000 0.000000
vt 0.000000 0.000000
vt 0.000000 0.000000
vt 0.000000 0.000000
vt 0.000000 0.000000
vt 0.000000 0.000000
vt 0.000000 0.000000
vt 0.000000 0.000000
vt 0.000000 0.000000
vt 0.000000 0.000000
vt 0.000000 0.000000
vt 0.000000 0.000000
vt 0.000000 0.000000
vt 0.000000 0.000000
vt 0.000000 0.000000
vt 0.000000 0.000000
vt 0.000000 0.000000
vt 0.000000 0.000000
vt 0.000000 0.000000
vt 0.000000 0.000000
vt 0.000000 0.000000
vt 0.000000 0.000000
vt 0.000000 0.000000
vt 0.000000 0.000000
vt 0.000000 0.000000
vt 0.000000 0.000000
vt 0.000000 0.000000
vt 0.000000 0.000000
vt 0.000000 0.000000
vt 0.000000 0.000000
vt 0.000000 0.000000
vt 0.000000 0.000000
vt 0.000000 0.000000
vt 0.000000 0.000000
vt 0.000000 0.000000
vt 0.000000 0.000000
vt 0.000000 0.000000
vt 0.000000 0.000000
vt 0.000000 0.000000
vt 0.000000 0.000000
vt 0.000000 0.000000
vt 0.000000 0.000000
vt 0.000000 0.000000
vt 0.000000 0.000000
vt 0.000000 0.000000
vt 0.000000 0.000000
vt 0.000000 0.000000
vt 0.000000 0.000000
vt 0.000000 0.000000
vt 0.000000 0.000000
vt 0.000000 0.000000
vt 0.000000 0.000000
vt 0.000000 0.000000
vt 0.000000 0.000000
vt 0.000000 0.000000
vt 0.000000 0.000000
vt 0.000000 0.000000
vt 0.000000 0.000000
vt 0.000000 0.000000
vt 0.000000 0.000000
vt 0.000000 0.000000
vt 0.000000 0.000000
vt 0.000000 0.000000
vt 0.000000 0.000000
vt 0.000000 0.000000
vt 0.000000 0.000000
vt 0.000000 0.000000
vt 0.000000 0.000000
vt 0.000000 0.000000
vt 0.000000 0.000000
vt 0.000000 0.000000
vt 0.000000 0.000000
vt 0.000000 0.000000
vt 0.000000 0.000000
vt 0.000000 0.000000
vt 0.000000 0.000000
vt 0.000000 0.000000
vt 0.000000 0.000000
vt 0.000000 0.000000
vt 0.000000 0.000000
vt 0.000000 0.000000
vt 0.000000 0.000000
vt 0.000000 0.000000
vt 0.000000 0.000000
vt 0.000000 0.000000
vt 0.000000 0.000000
vt 0.000000 0.000000
vt 0.000000 0.000000
vt 0.000000 0.000000
vt 0.000000 0.000000
vt 0.000000 0.000000
vt 0.000000 0.000000
vt 0.000000 0.000000
vt 0.000000 0.000000
vt 0.000000 0.000000
vt 0.000000 0.000000
vt 0.000000 0.000000
vt 0.000000 0.000000
vt 0.000000 0.000000
vt 0.000000 0.000000
vt 0.000000 0.000000
vt 0.000000 0.000000
vt 0.000000 0.000000
vt 0.000000 0.000000
vt 0.000000 0.000000
vt 0.000000 0.000000
vt 0.000000 0.000000
vt 0.000000 0.000000
vt 0.000000 0.000000
vt 0.000000 0.000000
vt 0.000000 0.000000
vt 0.000000 0.000000
vt 0.000000 0.000000
vt 0.000000 0.000000
vt 0.000000 0.000000
vt 0.000000 0.000000
vt 0.000000 0.000000
vt 0.000000 0.000000
vt 0.000000 0.000000
vt 0.000000 0.000000
vt 0.000000 0.000000
vt 0.000000 0.000000
vt 0.000000 0.000000
vt 0.000000 0.000000
vt 0.000000 0.000000
vt 0.000000 0.000000
vt 0.000000 0.000000
vt 0.000000 0.000000
vt 0.000000 0.000000
vt 0.000000 0.000000
vt 0.000000 0.000000
vt 0.000000 0.000000
vt 0.000000 0.000000
vt 0.000000 0.000000
vt 0.000000 0.000000
vt 0.000000 0.000000
vt 0.000000 0.000000
vt 0.000000 0.000000
vt 0.000000 0.000000
vt 0.000000 0.000000
vt 0.000000 0.000000
vt 0.000000 0.000000
vt 0.000000 0.000000
vt 0.000000 0.000000
vt 0.000000 0.000000
vt 0.000000 0.000000
vt 0.000000 0.000000
vt 0.000000 0.000000
vt 0.000000 0.000000
vt 0.000000 0.000000
vt 0.000000 0.000000
vt 0.000000 0.000000
vt 0.000000 0.000000
vt 0.000000 0.000000
vt 0.000000 0.000000
vt 0.000000 0.000000
vt 0.000000 0.000000
vt 0.000000 0.000000
vt 0.000000 0.000000
vt 0.000000 0.000000
vt 0.000000 0.000000
vt 0.000000 0.000000
vt 0.000000 0.000000
vt 0.000000 0.000000
vt 0.000000 0.000000
vt 0.000000 0.000000
vt 0.000000 0.000000
vt 0.000000 0.000000
vt 0.000000 0.000000
vt 0.000000 0.000000
vt 0.000000 0.000000
vt 0.000000 0.000000
vt 0.000000 0.000000
vt 0.000000 0.000000
vt 0.000000 0.000000
vt 0.000000 0.000000
vt 0.000000 0.000000
vt 0.000000 0.000000
vt 0.000000 0.000000
vt 0.000000 0.000000
vn 0.4929 -0.1336 -0.8598
vn 0.4915 -0.1389 -0.8597
vn 0.5217 0.0000 -0.8531
vn 0.9711 -0.1389 -0.1943
vn 0.9724 -0.1119 0.2048
vn 0.9863 0.0000 0.1649
vn 0.9743 0.0000 -0.2251
vn -0.9724 -0.1119 -0.2048
vn -0.8320 -0.0724 -0.5500
vn -0.8481 -0.0000 -0.5298
vn -0.9863 -0.0000 -0.1649
vn -0.2585 -0.0724 -0.9633
vn -0.2594 -0.0752 -0.9628
vn -0.2343 -0.0000 -0.9722
vn 0.0000 -1.0000 -0.0000
vn -0.5847 0.0000 -0.8113
vn 0.5847 0.0000 0.8113
vn 0.0129 -0.9998 0.0180
vn -0.8113 0.0000 0.5847
vn -0.7192 0.0000 0.6948
vn -0.0000 1.0000 -0.0000
vn 0.0129 0.9998 0.0180
vn 0.8113 -0.0000 -0.5847
vn 0.8866 -0.0000 -0.4625
vn -0.0129 -0.9998 -0.0178
vn 0.7200 0.0000 -0.6940
vn -0.0129 0.9998 -0.0178
vn -0.8861 0.0000 0.4635
vn -0.9560 -0.2247 -0.1886
vn -0.8117 -0.1422 -0.5665
vn -0.2806 -0.1422 -0.9492
vn -0.4546 -0.2653 0.8503
vn -0.4915 -0.1389 0.8597
vn -0.4929 -0.1336 0.8598
vn -0.9504 -0.2653 0.1623
vn -0.9711 -0.1389 0.1943
vn -0.5217 -0.0000 0.8531
vn -0.9743 -0.0000 0.2251
vn 0.8320 -0.0724 0.5500
vn 0.8481 0.0000 0.5298
vn 0.2586 -0.0724 0.9633
vn 0.2595 -0.0752 0.9628
vn 0.2343 0.0000 0.9722
vn 0.9504 -0.2653 -0.1623
vn 0.9560 -0.2247 0.1886
vn 0.4546 -0.2653 -0.8503
vn 0.2806 -0.1422 0.9492
vn 0.8117 -0.1422 0.5665
vn -0.9875 0.0000 0.1579
vn 0.9875 0.0000 -0.1579
vn -0.9444 0.0000 0.3287
vn 0.9406 0.0000 -0.3395
vn -0.9406 -0.0000 0.3395
vn -0.4407 0.6571 -0.6115
vn 0.1611 0.0000 -0.9869
vn -0.4407 -0.6571 -0.6115
vn 0.4407 0.6571 0.6115
vn -0.1611 -0.0000 0.9869
vn 0.4407 -0.6571 0.6115
vn -0.0286 0.9988 -0.0397
vn 0.6106 0.0000 -0.7920
vn -0.0286 -0.9988 -0.0397
vn 0.9451 0.0000 -0.3267
vn 0.0288 0.9988 0.0400
vn -0.6089 0.0000 0.7933
vn 0.0288 -0.9988 0.0400
usemtl col_master
s 1
f 2/1/1 3/2/2 4/3/3 5/4/3
f 6/5/4 7/6/5 8/7/6 9/8/7
f 10/9/8 11/10/9 12/11/10 13/12/11
f 14/13/12 15/14/13 16/15/14 17/16/14
f 19/17/15 18/18/15 22/19/15 20/20/15
f 23/21/16 24/22/16 25/23/16 26/24/16
f 27/25/15 28/26/15 29/27/15 30/28/15 31/29/15
f 32/30/17 33/31/17 34/32/17 35/33/17
f 36/34/15 37/35/18 38/36/18 39/37/15
f 40/38/19 41/39/20 42/40/20 43/41/19
f 44/42/21 45/43/22 46/44/22 47/45/21
f 48/46/23 49/47/24 50/48/24 51/49/23
f 52/50/15 53/51/25 54/52/25 55/53/15
f 56/54/23 57/55/26 58/56/26 59/57/23
f 60/58/21 61/59/27 62/60/27 63/61/21
f 64/62/19 65/63/28 66/64/28 67/65/19
f 68/66/29 69/67/30 11/10/9 10/9/8
f 70/68/15 27/25/15 31/29/15 71/69/15 72/70/15
f 73/71/15 70/68/15 72/70/15 74/72/15 75/73/15
f 28/26/15 73/71/15 75/73/15 76/74/15 29/27/15
f 77/75/31 78/76/31 15/14/13 14/13/12
f 79/77/32 80/78/32 81/79/33 82/80/34
f 83/81/35 68/66/29 10/9/8 84/82/36
f 82/80/34 81/79/33 85/83/37 86/84/37
f 84/82/36 10/9/8 13/12/11 87/85/38
f 7/6/5 88/86/39 89/87/40 8/7/6
f 90/88/41 91/89/42 92/90/43 93/91/43
f 94/92/44 95/93/45 7/6/5 6/5/4
f 96/94/46 97/95/46 3/2/2 2/1/1
f 98/96/47 99/97/47 91/89/42 90/88/41
f 95/93/45 100/98/48 88/86/39 7/6/5
f 101/99/49 102/100/19 103/101/19 104/102/49
f 105/103/21 106/104/21 107/105/21 108/106/21
f 109/107/23 110/108/23 111/109/23 112/110/23
f 113/111/15 114/112/15 115/113/15 116/114/15
f 117/115/50 118/116/23 119/117/23 120/118/50
f 121/119/21 122/120/21 123/121/21 124/122/21
f 125/123/19 126/124/19 127/125/19 128/126/19
f 129/127/15 130/128/15 131/129/15 132/130/15
usemtl col_1
f 65/63/28 133/131/51 134/132/51 66/64/28
f 135/133/23 136/134/23 137/135/52 138/136/52
f 139/137/19 140/138/19 141/139/53 142/140/53
f 143/141/21 144/142/21 145/143/21 146/144/21
f 141/139/53 101/99/49 104/102/49 142/140/53
f 147/145/54 148/146/54 149/147/54 150/148/54
f 151/149/55 152/150/55 153/151/55 154/152/55
f 155/153/56 156/154/56 157/155/56 158/156/56
f 137/135/52 117/115/50 120/118/50 138/136/52
f 159/157/57 160/158/57 161/159/57 162/160/57
f 163/161/58 164/162/58 165/163/58 166/164/58
f 167/165/59 168/166/59 169/167/59 170/168/59
f 61/59/27 171/169/60 172/170/60 62/60/27
f 57/55/26 173/171/61 174/172/61 58/56/26
f 53/51/25 175/173/62 176/174/62 54/52/25
f 49/47/24 177/175/63 178/176/63 50/48/24
f 45/43/22 179/177/64 180/178/64 46/44/22
f 41/39/20 181/179/65 182/180/65 42/40/20
f 37/35/18 183/181/66 184/182/66 38/36/18
f 102/100/19 64/62/19 67/65/19 103/101/19
f 106/104/21 60/58/21 63/61/21 107/105/21
f 110/108/23 56/54/23 59/57/23 111/109/23
f 114/112/15 52/50/15 55/53/15 115/113/15
f 118/116/23 48/46/23 51/49/23 119/117/23
f 122/120/21 44/42/21 47/45/21 123/121/21
f 126/124/19 40/38/19 43/41/19 127/125/19
f 130/128/15 36/34/15 39/37/15 131/129/15
